 <svg  version="1.0" xmlns="http://www.w3.org/2000/svg"  width="300.000000pt" height="300.000000pt" viewBox="0 0 300.000000 300.000000"  preserveAspectRatio="xMidYMid meet">  <g transform="translate(0.000000,300.000000) scale(0.100000,-0.100000)" fill="#ffffff" stroke="none"> <path d="M1812 2055 c-76 -17 -156 -52 -218 -97 l-46 -33 -246 -3 c-270 -3 -282 -6 -282 -62 0 -56 15 -60 253 -60 204 0 218 -1 237 -20 11 -11 20 -29 20 -40 0 -11 -9 -29 -20 -40 -19 -19 -33 -20 -495 -20 -462 0 -476 -1 -495 -20 -25 -25 -25 -55 0 -80 19 -19 33 -20 443 -20 398 0 425 -1 440 -18 22 -24 21 -65 -1 -85 -14 -13 -37 -17 -89 -17 -77 0 -103 -15 -103 -62 0 -49 25 -58 158 -58 109 0 124 -2 142 -20 11 -11 20 -29 20 -40 0 -11 -9 -29 -20 -40 -18 -18 -33 -20 -168 -20 -165 0 -192 -8 -192 -59 0 -56 19 -61 211 -61 l175 0 68 -45 c136 -89 287 -121 431 -92 256 53 440 258 461 514 29 374 -318 677 -684 598z m251 -30 c32 -8 72 -23 90 -32 32 -17 38 -19 58 -22 19 -2 191 -180 184 -191 -3 -5 -2 -10 4 -10 6 0 14 -12 17 -27 4 -16 13 -37 19 -48 17 -27 37 -114 30 -126 -4 -5 0 -9 7 -10 7 0 9 -2 3 -5 -6 -2 -9 -32 -7 -68 4 -79 -17 -166 -57 -235 -17 -29 -31 -55 -31 -59 -1 -11 -82 -95 -120 -123 -163 -121 -380 -143 -567 -58 -26 12 -59 32 -73 45 -48 43 -110 55 -273 53 -116 -1 -153 2 -163 13 -12 11 -12 17 -2 31 11 14 36 16 161 18 l148 2 30 30 c24 24 30 37 27 66 l-3 36 59 3 c57 3 58 2 52 -20 -14 -49 -15 -59 -1 -65 8 -3 13 -8 11 -12 -7 -11 498 3 518 16 18 10 19 15 9 47 l-11 36 79 0 c111 0 119 9 119 138 0 91 -2 101 -28 143 -45 69 -63 81 -137 86 l-65 6 0 66 c0 54 -4 72 -21 90 -20 21 -24 22 -212 18 -210 -5 -214 -5 -214 -21 0 -6 -1 -44 -1 -83 l-2 -73 -42 0 c-24 0 -59 -5 -79 -10 -36 -10 -89 -59 -89 -83 0 -7 -7 -23 -16 -35 -12 -17 -15 -43 -12 -112 l3 -90 -108 0 c-89 0 -109 3 -114 16 -10 27 23 48 80 50 70 1 89 9 109 43 21 38 12 77 -25 105 -26 19 -44 20 -440 23 -226 2 -418 6 -424 8 -17 6 -17 42 -1 52 7 4 226 7 486 8 409 0 474 2 482 15 5 8 10 11 10 5 0 -5 7 1 15 15 28 50 12 101 -40 127 -11 5 -101 9 -205 8 -102 -1 -195 2 -208 6 -26 10 -39 36 -25 50 6 6 112 12 248 15 260 6 240 2 358 75 27 16 56 31 65 32 9 1 23 6 30 11 7 4 28 10 45 13 18 3 34 7 36 9 11 10 173 2 224 -11z m57 -300 c0 -63 -4 -105 -10 -105 -6 0 -10 38 -10 95 l0 95 -175 0 -175 0 0 -95 c0 -57 -4 -95 -10 -95 -6 0 -10 42 -10 105 l0 105 195 0 195 0 0 -105z m-52 -12 l3 -73 -63 -1 c-150 -1 -220 0 -223 3 -4 4 -7 55 -6 105 l1 41 143 -1 142 -2 3 -72z m-348 -71 c0 -4 -5 -13 -12 -20 -9 -9 37 -12 211 -12 218 0 222 0 216 20 -6 19 -2 20 66 20 69 0 73 -1 105 -36 19 -19 34 -40 34 -45 0 -5 -168 -9 -420 -9 l-419 0 20 35 c12 19 28 39 38 45 19 11 161 13 161 2z m635 -197 l0 -100 -102 -3 c-98 -3 -102 -2 -109 20 -4 13 -7 33 -5 46 l2 22 -222 0 -221 0 5 -29 c11 -53 -7 -62 -113 -59 l-95 3 -3 103 -3 102 433 -2 433 -3 0 -100z m-605 -38 c0 -2 -9 -30 -20 -62 -11 -32 -20 -63 -20 -69 0 -8 66 -11 215 -11 118 0 215 0 215 0 0 1 -11 33 -24 73 -32 99 -9 94 28 -6 15 -42 28 -80 27 -85 -1 -5 -414 -12 -503 -7 -4 0 6 30 21 68 15 37 31 75 34 85 5 14 27 25 27 14z m270 -7 c8 -5 -44 -8 -114 -9 -82 0 -124 3 -120 10 7 12 215 11 234 -1z m-17 -37 c-46 -2 -120 -2 -165 0 -46 1 -9 3 82 3 91 0 128 -2 83 -3z m87 -23 c0 -6 -62 -10 -165 -10 -103 0 -165 4 -165 10 0 6 62 10 165 10 103 0 165 -4 165 -10z m-78 -27 c-51 -2 -132 -2 -180 0 -48 1 -6 3 93 3 99 0 138 -2 87 -3z m1 -20 c-51 -2 -135 -2 -185 0 -51 1 -10 3 92 3 102 0 143 -2 93 -3z"/> <path d="M2198 1583 c7 -3 16 -2 19 1 4 3 -2 6 -13 5 -11 0 -14 -3 -6 -6z"/> <path d="M2238 1583 c7 -3 16 -2 19 1 4 3 -2 6 -13 5 -11 0 -14 -3 -6 -6z"/> <path d="M2278 1583 c7 -3 16 -2 19 1 4 3 -2 6 -13 5 -11 0 -14 -3 -6 -6z"/> <path d="M1550 1501 c0 -5 7 -11 15 -15 9 -3 15 0 15 9 0 8 -7 15 -15 15 -8 0 -15 -4 -15 -9z"/> <path d="M1600 1500 c0 -5 14 -10 30 -10 17 0 30 5 30 10 0 6 -13 10 -30 10 -16 0 -30 -4 -30 -10z"/> <path d="M637 1902 c-23 -25 -21 -58 3 -82 17 -17 33 -20 120 -20 87 0 103 3 120 20 11 11 20 29 20 40 0 11 -9 29 -20 40 -17 17 -33 20 -123 20 -88 0 -106 -3 -120 -18z m202 -13 c34 -12 40 -29 15 -50 -17 -14 -147 -20 -181 -8 -27 10 -30 44 -5 58 23 14 131 14 171 0z"/> <path d="M787 1422 c-22 -24 -21 -65 1 -85 15 -14 41 -17 140 -17 109 0 124 2 142 20 11 11 20 29 20 40 0 11 -9 29 -20 40 -18 18 -33 20 -143 20 -107 0 -126 -2 -140 -18z m264 -23 c26 -42 2 -51 -133 -51 -104 1 -122 7 -116 38 4 22 53 31 167 28 50 -1 76 -5 82 -15z"/> </g> </svg> 