<?xml version="1.0" standalone="no"?>
<!DOCTYPE svg PUBLIC "-//W3C//DTD SVG 20010904//EN"
 "http://www.w3.org/TR/2001/REC-SVG-20010904/DTD/svg10.dtd">
<svg version="1.0" xmlns="http://www.w3.org/2000/svg"
 width="300.000000pt" height="300.000000pt" viewBox="0 0 300.000000 300.000000"
 preserveAspectRatio="xMidYMid meet">
<metadata>
Created by potrace 1.10, written by Peter Selinger 2001-2011
</metadata>
<g transform="translate(0.000000,300.000000) scale(0.100000,-0.100000)"
fill="#000000" stroke="none">
<path d="M1833 2059 c-76 -13 -155 -45 -225 -92 l-63 -42 -245 -3 c-267 -3
-280 -6 -280 -62 0 -56 15 -60 253 -60 204 0 218 -1 237 -20 11 -11 20 -29 20
-40 0 -11 -9 -29 -20 -40 -19 -19 -33 -20 -495 -20 -462 0 -476 -1 -495 -20
-25 -25 -25 -55 0 -80 19 -19 33 -20 443 -20 398 0 425 -1 440 -18 22 -24 21
-65 -1 -85 -14 -13 -37 -17 -89 -17 -77 0 -103 -15 -103 -62 0 -49 25 -58 158
-58 109 0 124 -2 142 -20 11 -11 20 -29 20 -40 0 -11 -9 -29 -20 -40 -18 -18
-33 -20 -168 -20 -165 0 -192 -8 -192 -59 0 -56 19 -61 211 -61 l175 0 68 -45
c88 -57 161 -84 266 -97 283 -36 555 161 615 447 27 130 11 248 -51 374 -107
216 -356 341 -601 300z m232 -44 c61 -16 137 -51 177 -83 83 -64 161 -169 192
-257 23 -65 32 -229 17 -292 -60 -241 -274 -413 -514 -413 -114 0 -194 24
-302 90 -92 56 -98 57 -268 59 -89 1 -164 4 -169 7 -4 3 -5 11 -1 19 4 12 29
15 122 15 184 1 227 18 238 99 6 40 7 41 44 41 38 0 39 -1 39 -34 0 -63 12
-66 290 -66 243 0 245 0 260 23 8 12 15 33 15 47 0 24 3 25 67 28 53 2 71 7
92 27 24 23 26 30 26 118 0 84 -3 101 -28 148 -33 63 -71 88 -146 96 -61 6
-66 13 -66 92 0 79 -5 81 -223 81 -182 0 -192 -1 -214 -22 -19 -18 -23 -32
-23 -80 0 -64 0 -65 -70 -72 -25 -2 -54 -8 -64 -12 -16 -6 -18 -4 -11 12 21
49 17 81 -13 114 l-29 33 -169 -1 c-174 -1 -240 3 -265 18 -35 22 15 29 219
30 235 2 253 5 351 65 128 79 289 106 426 70z m55 -275 l0 -90 76 0 c75 0 77
-1 110 -36 19 -19 34 -40 34 -45 0 -5 -170 -8 -420 -6 l-419 2 15 25 c33 52
51 60 135 60 l79 0 0 90 0 90 195 0 195 0 0 -90z m-636 -143 c-26 -47 -47 -59
-57 -33 -12 30 -84 37 -369 36 -523 -2 -508 -3 -508 19 0 27 25 28 502 24 223
-2 417 1 430 6 32 12 33 2 2 -52z m874 -147 c2 -72 -1 -97 -11 -105 -8 -6 -53
-9 -104 -7 -82 3 -91 5 -100 25 -6 13 -7 32 -2 45 l8 22 -226 0 -225 0 5 -29
c11 -53 -7 -62 -113 -59 l-95 3 -3 103 -3 102 433 -2 433 -3 3 -95z m-908 -50
l0 -40 -95 0 c-88 0 -95 2 -95 20 0 14 9 21 33 25 19 4 40 6 48 5 32 -5 59 1
71 15 24 26 38 17 38 -25z m300 7 c0 -2 -9 -30 -20 -62 -11 -32 -20 -63 -20
-69 0 -8 64 -10 214 -8 l213 3 -19 65 c-11 36 -18 68 -14 71 8 8 6 11 44 -81
17 -43 29 -82 26 -87 -6 -10 -497 -13 -507 -3 -3 3 7 36 22 72 16 37 31 75 34
85 5 14 27 25 27 14z m253 -44 c-46 -2 -120 -2 -165 0 -46 1 -9 3 82 3 91 0
128 -2 83 -3z m87 -23 c0 -6 -62 -10 -165 -10 -103 0 -165 4 -165 10 0 6 62
10 165 10 103 0 165 -4 165 -10z m-82 -27 c-49 -2 -127 -2 -175 0 -49 1 -9 3
87 3 96 0 136 -2 88 -3z m5 -20 c-51 -2 -135 -2 -185 0 -51 1 -10 3 92 3 102
0 143 -2 93 -3z"/>
<path d="M1750 1715 c0 -52 -4 -95 -9 -95 -5 0 -11 5 -13 11 -2 7 -9 5 -17 -5
-12 -15 6 -16 208 -16 203 0 244 5 211 25 -5 3 -10 1 -10 -4 0 -6 -4 -11 -10
-11 -6 0 -10 38 -10 95 l0 95 -175 0 -175 0 0 -95z m305 0 l0 -60 -132 -3
-133 -3 0 66 0 66 133 -3 132 -3 0 -60z"/>
<path d="M1600 1500 c0 -5 14 -10 30 -10 17 0 30 5 30 10 0 6 -13 10 -30 10
-16 0 -30 -4 -30 -10z"/>
<path d="M637 1902 c-23 -25 -21 -58 3 -82 17 -17 33 -20 120 -20 87 0 103 3
120 20 11 11 20 29 20 40 0 11 -9 29 -20 40 -17 17 -33 20 -123 20 -88 0 -106
-3 -120 -18z m211 -39 c-3 -15 -16 -18 -82 -21 -90 -3 -108 1 -100 23 5 12 24
15 96 15 80 0 89 -2 86 -17z"/>
<path d="M787 1422 c-22 -24 -21 -65 1 -85 15 -14 41 -17 140 -17 109 0 124 2
142 20 11 11 20 29 20 40 0 11 -9 29 -20 40 -18 18 -33 20 -143 20 -107 0
-126 -2 -140 -18z m253 -38 c0 -23 -33 -29 -132 -24 -74 4 -93 8 -93 20 0 12
17 16 75 20 101 7 150 1 150 -16z"/>
</g>
</svg>
