<?xml version="1.0" standalone="no"?>
<!DOCTYPE svg PUBLIC "-//W3C//DTD SVG 20010904//EN"
 "http://www.w3.org/TR/2001/REC-SVG-20010904/DTD/svg10.dtd">
<svg version="1.0" xmlns="http://www.w3.org/2000/svg"
 width="300.000000pt" height="245.000000pt" viewBox="0 0 300.000000 245.000000"
 preserveAspectRatio="xMidYMid meet">
<metadata>
Created by potrace 1.10, written by Peter Selinger 2001-2011
</metadata>
<g transform="translate(0.000000,245.000000) scale(0.100000,-0.100000)"
fill="#000000" stroke="none">
<path d="M2090 2321 c-8 -6 -17 -8 -21 -5 -4 2 -21 -9 -38 -25 -30 -28 -39
-59 -23 -75 4 -4 7 -11 7 -14 0 -10 47 -84 67 -106 30 -33 20 -4 -26 74 -42
71 -43 76 -28 94 19 21 72 46 97 46 18 0 144 -129 145 -147 0 -18 18 -16 22 1
2 9 26 -13 61 -55 49 -59 56 -72 47 -89 -15 -27 -67 -53 -95 -46 -24 6 -105
89 -135 139 -18 30 -24 27 -50 -23 -12 -22 -12 -24 2 -12 16 13 72 7 63 -8 -2
-4 6 -17 18 -28 69 -66 75 -81 27 -69 -34 9 -46 8 -90 -13 -27 -13 -58 -32
-67 -43 -18 -20 -18 -20 17 -2 19 10 48 27 63 37 26 19 31 19 75 5 35 -12 49
-13 55 -4 6 8 7 7 4 -3 -2 -8 18 -39 45 -68 26 -30 48 -59 49 -65 0 -7 9 -30
20 -52 17 -36 19 -37 14 -10 -8 46 -46 114 -82 150 -18 18 -33 35 -33 38 0 2
13 7 29 10 15 3 43 18 61 33 27 24 31 32 27 61 -7 40 -78 120 -124 139 -18 8
-33 18 -33 22 0 11 -70 85 -99 104 -29 20 -49 22 -71 9z"/>
<path d="M2521 2024 c-35 -13 -67 -26 -69 -29 -11 -11 17 -4 98 24 47 16 74
29 60 29 -14 0 -54 -11 -89 -24z"/>
<path d="M2651 2007 c-1 -47 15 -79 75 -148 71 -83 84 -126 60 -194 -8 -20 -7
-20 8 -1 35 43 5 142 -67 216 -42 44 -56 69 -67 123 l-8 42 -1 -38z"/>
<path d="M2441 1957 c-1 -15 6 -44 16 -65 9 -20 15 -40 15 -44 -1 -5 2 -8 7
-8 15 0 101 -122 101 -144 0 -14 3 -17 11 -9 14 14 0 42 -50 103 -56 67 -73
97 -87 148 -10 36 -13 41 -13 19z"/>
<path d="M2086 1881 c-3 -4 16 -13 41 -21 45 -13 111 -69 156 -130 9 -13 17
-20 17 -15 -1 21 -72 106 -108 130 -43 28 -99 47 -106 36z"/>
<path d="M860 1821 c-5 -11 -10 -46 -10 -78 l0 -58 60 3 c41 3 60 0 60 -8 0
-6 -9 -48 -21 -93 -11 -46 -19 -103 -17 -129 l3 -48 -67 0 -68 0 0 -90 c0 -83
-1 -90 -20 -90 -11 0 -20 -6 -20 -14 0 -26 -28 -43 -80 -50 -42 -6 -57 -3 -83
13 -23 14 -72 25 -165 36 -73 9 -140 15 -149 14 -40 -4 -44 0 -38 34 5 23 2
37 -7 45 -12 9 -14 4 -14 -29 1 -27 7 -45 18 -53 10 -7 18 -20 18 -29 0 -11
16 -19 53 -26 151 -30 285 -53 307 -53 14 0 66 -7 115 -15 72 -11 205 -13 659
-11 l570 3 0 157 1 158 -506 0 -507 0 -6 34 c-4 20 2 68 14 120 11 48 20 96
20 106 0 20 10 20 464 20 427 0 465 -1 484 -17 24 -20 77 -193 69 -224 -7 -25
-1 -24 13 1 8 16 4 41 -19 114 -23 75 -37 102 -69 135 -26 27 -48 41 -66 41
-19 0 -26 5 -26 20 0 18 7 20 55 20 54 0 55 0 55 30 l0 30 -535 0 c-518 0
-535 -1 -545 -19z m1013 -1 c78 0 53 -17 -35 -24 -166 -13 -696 -31 -831 -28
-136 3 -138 3 -135 25 l3 22 455 5 c250 3 464 4 475 3 11 -2 41 -3 68 -3z
m-83 -60 c0 -6 -39 -10 -107 -9 -121 1 -105 12 23 17 53 2 84 -1 84 -8z m-690
-22 c0 -10 77 -12 362 -10 260 2 364 0 372 -8 8 -9 -112 -11 -476 -8 -457 3
-488 4 -488 21 0 15 12 17 115 17 85 0 115 -3 115 -12z m-110 -503 l0 -125
-91 0 -91 0 4 118 3 117 75 6 c41 3 81 6 88 7 9 2 12 -29 12 -123z m960 -5 l0
-120 -470 0 -470 0 0 104 c0 57 -3 111 -6 120 -6 14 40 16 470 16 l476 0 0
-120z m-1488 -39 c89 -10 115 -19 136 -44 9 -11 -6 -10 -81 4 -50 11 -122 24
-159 30 -69 12 -86 34 -20 25 20 -3 76 -10 124 -15z m328 -41 c0 -13 -7 -20
-18 -20 -28 0 -34 11 -14 26 24 19 32 17 32 -6z"/>
<path d="M1288 1303 c106 -2 277 -2 380 0 103 1 16 2 -193 2 -209 0 -293 -1
-187 -2z"/>
<path d="M1855 1244 c-17 -13 -73 -14 -386 -12 -202 2 -362 0 -356 -4 7 -4
172 -8 368 -8 340 0 358 1 380 20 28 23 23 26 -6 4z"/>
<path d="M2325 1720 c-14 -5 -6 -8 28 -7 26 0 45 3 42 6 -10 9 -49 10 -70 1z"/>
<path d="M818 1676 c-10 -7 -18 -20 -18 -29 0 -9 -4 -18 -9 -21 -5 -4 -12 -25
-16 -48 -4 -22 -14 -56 -21 -74 -8 -19 -11 -34 -7 -34 5 0 1 -5 -8 -10 -9 -5
-27 -7 -40 -5 -13 3 -91 6 -174 6 -82 1 -171 4 -197 8 -50 8 -65 -1 -26 -14
13 -5 104 -9 203 -10 180 -2 239 -8 263 -27 15 -13 16 -3 2 22 -8 15 -4 43 16
112 14 51 32 103 40 116 17 25 16 26 -8 8z"/>
<path d="M2660 1656 c43 -8 84 -10 95 -5 17 6 15 8 -11 8 -17 1 -60 3 -95 6
l-64 4 75 -13z"/>
<path d="M1185 1635 c-2 -5 -6 -40 -9 -77 l-6 -67 241 -3 241 -3 -7 65 c-3 36
-8 72 -10 80 -4 13 -38 15 -226 15 -139 0 -223 -4 -224 -10z m75 -59 c0 -33
-20 -53 -41 -40 -16 9 -10 53 9 63 27 16 32 13 32 -23z m68 6 c3 -17 -2 -25
-17 -29 -12 -3 -21 -12 -21 -20 0 -8 -4 -11 -10 -8 -5 3 -10 24 -10 46 0 38 2
40 28 37 19 -2 28 -9 30 -26z m59 -20 l2 -43 -19 23 -19 23 -1 -25 c0 -16 -3
-21 -8 -13 -4 7 -6 29 -4 48 4 30 8 36 26 33 17 -2 21 -10 23 -46z m66 20 l16
-27 1 28 c0 25 3 27 40 27 22 0 40 -4 40 -10 0 -5 -4 -10 -10 -10 -5 0 -10
-13 -10 -29 0 -17 -4 -33 -10 -36 -6 -4 -10 8 -10 29 0 20 -4 36 -10 36 -5 0
-10 -17 -10 -37 l-1 -38 -24 28 -25 28 0 -26 c0 -37 -20 -21 -21 18 -2 30 -2
30 -9 -8 l-7 -40 -2 45 c-1 38 2 46 17 47 10 1 26 -11 35 -25z m149 -17 c-3
-20 -10 -25 -34 -25 -26 0 -29 3 -22 22 16 52 66 54 56 3z m13 -55 c4 -6 -12
-10 -40 -10 -28 0 -44 4 -40 10 3 6 21 10 40 10 19 0 37 -4 40 -10z m-132 -7
c-23 -2 -64 -2 -90 0 -26 2 -7 3 42 3 50 0 71 -1 48 -3z"/>
<path d="M1695 1639 c-10 -15 5 -29 30 -29 17 0 22 4 18 18 -5 19 -39 27 -48
11z"/>
<path d="M1760 1628 c0 -13 7 -18 26 -18 18 0 25 5 22 17 -4 24 -48 25 -48 1z"/>
<path d="M1838 1641 c-24 -9 -7 -34 21 -29 19 3 20 5 9 19 -8 10 -20 14 -30
10z"/>
<path d="M1022 1629 c-15 -6 -22 -15 -20 -26 4 -23 29 -27 53 -9 18 13 18 16
5 29 -11 11 -22 12 -38 6z"/>
<path d="M2515 1620 c-33 -13 -63 -52 -80 -105 -24 -72 -49 -95 -101 -95 -24
0 -46 -4 -49 -10 -12 -19 -25 -10 -25 18 0 34 -29 122 -39 122 -5 0 -2 -24 6
-52 28 -105 -7 -254 -84 -355 -19 -25 -33 -47 -31 -49 2 -2 24 3 48 11 28 8
36 14 23 14 -29 1 -29 18 1 56 20 25 26 27 39 17 8 -7 29 -17 45 -21 41 -12
81 23 125 110 55 109 77 131 127 131 23 -1 55 -4 71 -7 40 -9 36 3 -8 21 -80
34 -135 -1 -198 -127 -25 -48 -54 -93 -64 -99 -26 -14 -81 -13 -81 1 0 7 14
56 30 110 l30 98 33 -6 c43 -7 80 24 103 85 35 94 75 126 150 120 l39 -3 2
-70 c1 -38 2 -83 2 -99 2 -56 12 -18 17 63 8 106 -6 131 -69 130 -23 0 -51 -4
-62 -9z"/>
<path d="M1702 1573 c2 -10 13 -19 26 -21 17 -3 22 2 22 17 0 16 -6 21 -26 21
-19 0 -25 -5 -22 -17z"/>
<path d="M1770 1571 c0 -16 6 -21 26 -21 33 0 30 33 -4 38 -17 3 -22 -2 -22
-17z"/>
<path d="M1834 1574 c3 -9 6 -18 6 -20 0 -2 9 -4 20 -4 13 0 20 7 20 20 0 15
-7 20 -26 20 -20 0 -25 -4 -20 -16z"/>
<path d="M2157 1521 c-15 -22 -32 -41 -37 -41 -6 0 -9 -3 -8 -7 1 -5 -6 -23
-15 -41 -18 -32 -17 -34 7 -89 40 -86 36 -95 -41 -109 -38 -7 -42 -14 -7 -14
51 0 104 19 104 38 0 22 -45 118 -59 126 -7 5 7 34 40 82 28 41 49 80 47 86
-2 6 -16 -8 -31 -31z"/>
<path d="M984 1535 c-8 -19 3 -35 25 -35 20 0 41 19 41 37 0 18 -59 17 -66 -2z"/>
<path d="M1712 1513 c2 -10 13 -19 26 -21 17 -3 22 2 22 17 0 16 -6 21 -26 21
-19 0 -25 -5 -22 -17z"/>
<path d="M1782 1513 c2 -10 14 -19 26 -21 19 -3 23 1 20 15 -2 10 -14 19 -26
21 -19 3 -23 -1 -20 -15z"/>
<path d="M1842 1513 c2 -10 13 -19 26 -21 17 -3 22 2 22 17 0 16 -6 21 -26 21
-19 0 -25 -5 -22 -17z"/>
<path d="M2780 1485 c0 -5 4 -26 9 -45 23 -91 24 -87 -20 -135 -49 -53 -125
-85 -205 -85 -30 0 -53 -4 -50 -8 3 -5 22 -8 43 -7 117 6 197 46 244 122 19
30 20 38 9 86 -12 50 -29 92 -30 72z"/>
<path d="M2717 1435 c-21 -25 -41 -44 -45 -44 -14 2 -52 -13 -52 -21 0 -4 -15
-11 -33 -14 -19 -3 -42 -13 -53 -21 -16 -12 -11 -12 36 1 74 21 134 57 166 99
40 52 24 52 -19 0z"/>
<path d="M252 1413 c-6 -27 -14 -56 -17 -65 -5 -12 -2 -18 8 -18 15 0 27 28
27 68 0 17 6 22 28 23 l27 0 -25 12 c-14 6 -28 15 -31 19 -3 5 -10 -13 -17
-39z"/>
<path d="M1877 1453 c18 -2 50 -2 70 0 21 2 7 4 -32 4 -38 0 -55 -2 -38 -4z"/>
<path d="M1088 1443 c23 -2 61 -2 85 0 23 2 4 4 -43 4 -47 0 -66 -2 -42 -4z"/>
<path d="M670 1321 c0 -33 -3 -68 -6 -78 -4 -15 -4 -15 4 -3 13 19 21 140 10
140 -4 0 -8 -27 -8 -59z"/>
<path d="M275 1312 c11 -12 195 -21 195 -9 0 4 -21 7 -47 7 -27 0 -73 3 -103
6 -38 5 -52 3 -45 -4z"/>
<path d="M2027 1148 l6 -67 -37 -6 c-20 -4 -36 -10 -36 -14 0 -4 20 -3 44 3
l44 10 -5 40 c-9 77 -22 104 -16 34z"/>
<path d="M2185 1062 c-126 -42 -232 -78 -234 -79 -3 -2 1 -9 8 -16 10 -8 15
-9 18 -1 2 6 105 44 228 85 124 40 225 77 225 81 0 11 6 13 -245 -70z"/>
<path d="M2484 1125 c3 -11 7 -30 11 -41 4 -17 0 -24 -22 -32 -124 -43 -518
-185 -518 -186 0 0 2 -120 5 -266 l6 -265 2 250 c1 138 6 255 10 262 4 6 45
25 92 41 47 16 123 43 170 60 308 112 288 99 260 157 -11 22 -18 31 -16 20z"/>
<path d="M798 1058 c-8 -22 -6 -692 2 -718 5 -14 8 145 9 353 1 207 -1 377 -3
377 -2 0 -6 -6 -8 -12z"/>
<path d="M2250 1044 l-35 -14 35 6 c19 4 44 10 55 15 20 8 20 8 0 8 -11 0 -36
-7 -55 -15z"/>
<path d="M872 848 c-16 -16 -16 -200 0 -216 9 -9 137 -12 515 -12 581 0 523
-13 523 120 0 133 58 120 -523 120 -378 0 -506 -3 -515 -12z m356 -18 c85 -27
213 -27 310 0 85 24 319 29 340 8 8 -8 12 -46 12 -104 0 -75 -3 -93 -16 -98
-9 -3 -233 -6 -498 -6 -362 0 -485 3 -494 12 -16 16 -16 180 0 196 8 8 55 12
148 12 107 0 148 -4 198 -20z"/>
<path d="M872 568 c-16 -16 -16 -200 0 -216 9 -9 137 -12 515 -12 581 0 523
-13 523 120 0 133 58 120 -523 120 -378 0 -506 -3 -515 -12z m339 -15 c62 -24
276 -24 339 0 34 13 77 17 177 17 72 0 138 -3 147 -6 13 -5 16 -23 16 -98 0
-58 -4 -96 -12 -104 -17 -17 -979 -17 -996 0 -16 16 -16 180 0 196 20 20 275
16 329 -5z"/>
<path d="M246 295 c-3 -8 -3 -22 0 -30 5 -13 134 -15 1103 -13 l1096 3 0 25 0
25 -243 3 c-205 2 -246 0 -266 -13 -20 -14 -91 -15 -566 -13 -424 2 -544 6
-548 16 -3 9 -69 12 -287 12 -242 0 -284 -2 -289 -15z m434 -13 c0 -5 -29 -9
-65 -10 -36 -1 -65 2 -65 6 0 5 29 9 65 10 36 1 65 -2 65 -6z m80 -2 c0 -5
-16 -9 -35 -8 -19 1 -35 5 -35 10 0 4 16 8 35 8 19 0 35 -4 35 -10z m1320 -2
c0 -9 -89 -8 -94 1 -2 3 18 6 45 6 27 1 49 -3 49 -7z m94 0 c-3 -5 -23 -8 -45
-8 -22 0 -38 4 -35 9 3 5 23 8 45 7 22 0 37 -4 35 -8z m82 -1 c4 -4 -9 -7 -29
-7 -20 0 -37 4 -37 9 0 10 56 9 66 -2z m140 2 c3 -5 -24 -9 -60 -9 -36 0 -66
4 -66 9 0 11 119 11 126 0z"/>
<path d="M2524 295 c-15 -38 2 -46 93 -43 86 3 88 3 88 28 0 25 -2 25 -88 28
-71 2 -88 0 -93 -13z"/>
</g>
</svg>
